# File created by Blade
# Date/Time:  Tue Apr 07 20:35:32 2015
# Frame Rate: 120.000 fps
#------------------------------------------------------
:FULLY-SPECIFIED
:DEGREES
2160
root 1.452162 32.886215 -3.613817 16.877569 -9.869624 -5.516957
Spine -13.171312 2.082996 -0.248464
Head 9.383326 0.436063 1.052263
LeftShoulder -20.066968 37.636030 24.433361
LeftArm 56.862671 -56.832136 -57.023090
LeftForeArm 7.333498 -0.000000 9.909285
LeftHand 9.905582 -0.000000 13.503957
LeftHandThumb1 -26.253704 0.000000 33.147579
RightShoulder -5.192705 6.510760 -32.475089
RightArm 11.326696 10.212805 39.845988
RightForeArm -5.651509 -0.000000 10.178722
RightHand 8.934518 -0.000000 -11.580126
RightHandThumb1 -24.326973 -0.000000 -32.862282
LeftUpLeg -12.133833 -4.276293 3.513833
LeftLeg 1.213325 -0.000000 -0.000000
LeftFoot -8.117401 12.125393 -11.724962
LeftToeBase -11.296452 -0.000000 0.000000
RightUpLeg -16.047819 1.285657 0.646700
RightLeg 2.224826 -0.000000 -0.000000
RightFoot -3.359934 -1.706457 12.526457
RightToeBase -2.745902 -0.000000 0.000000
2161
root 1.456541 32.810647 -3.584516 16.611611 -9.291185 -4.587578
Spine -13.371008 1.410066 -0.971809
Head 9.774206 0.405987 1.124113
LeftShoulder -20.199627 37.618605 24.308773
LeftArm 57.610236 -57.096317 -57.472728
LeftForeArm 7.497234 -0.000000 9.929408
LeftHand 9.672971 -0.000000 14.017233
LeftHandThumb1 -26.253704 0.000000 33.147579
RightShoulder -5.364411 6.586944 -32.266152
RightArm 11.406792 10.385743 39.617585
RightForeArm -6.068029 -0.000000 10.261922
RightHand 8.898239 -0.000000 -11.838362
RightHandThumb1 -24.326973 -0.000000 -32.862282
LeftUpLeg -11.971226 -5.370527 2.734136
LeftLeg 0.973099 -0.000000 -0.000000
LeftFoot -8.217257 12.998984 -11.096504
LeftToeBase -11.873232 -0.000000 0.000000
RightUpLeg -16.017941 1.158682 -0.218689
RightLeg 2.844845 -0.000000 -0.000000
RightFoot -4.972022 -2.139516 11.219162
RightToeBase -2.256204 -0.000000 0.000000
2162
root 1.440154 32.764378 -3.556282 16.446760 -8.616241 -3.898368
Spine -13.634730 0.773842 -1.468321
Head 10.207508 0.296744 1.228884
LeftShoulder -20.287402 37.618078 24.192407
LeftArm 58.209187 -57.239078 -57.875664
LeftForeArm 7.550805 -0.000000 10.175965
LeftHand 9.503105 -0.000000 14.400210
LeftHandThumb1 -26.253704 0.000000 33.147579
RightShoulder -5.591739 6.677805 -32.007597
RightArm 11.422708 10.423851 39.418180
RightForeArm -6.302427 0.000000 10.377734
RightHand 8.805824 -0.000000 -12.186439
RightHandThumb1 -24.326973 -0.000000 -32.862282
LeftUpLeg -11.875504 -6.293078 2.292812
LeftLeg 0.822896 -0.000000 -0.000000
LeftFoot -8.313183 13.235099 -11.030999
LeftToeBase -12.360795 -0.000000 0.000000
RightUpLeg -15.872907 0.862949 -0.742677
RightLeg 3.098961 -0.000000 -0.000000
RightFoot -6.050191 -2.542326 10.319373
RightToeBase -1.595091 -0.000000 0.000000
2163
root 1.403396 32.745633 -3.518652 16.287665 -7.886932 -3.475760
Spine -13.888903 0.189576 -1.684870
Head 10.744746 0.150798 1.260334
LeftShoulder -20.336359 37.651221 24.020839
LeftArm 58.919676 -57.348695 -58.450424
LeftForeArm 7.645442 -0.000000 10.487105
LeftHand 9.386326 0.000000 14.872994
LeftHandThumb1 -26.253704 0.000000 33.147579
RightShoulder -5.804925 6.699786 -31.764784
RightArm 11.366518 10.564258 39.340575
RightForeArm -6.633435 -0.000000 10.631081
RightHand 8.150992 -0.000000 -12.494308
RightHandThumb1 -24.326973 -0.000000 -32.862282
LeftUpLeg -11.711407 -6.955435 2.160031
LeftLeg 0.701025 -0.000000 -0.000000
LeftFoot -8.434171 12.871266 -11.417002
LeftToeBase -11.983949 -0.000000 0.000000
RightUpLeg -15.498541 0.509468 -0.931205
RightLeg 2.923156 -0.000000 -0.000000
RightFoot -6.743638 -3.199510 9.974228
RightToeBase -0.168342 -0.000000 0.000000
2164
root 1.353082 32.750107 -3.476694 16.184035 -7.191367 -3.276543
Spine -14.145184 -0.197733 -1.727202
Head 11.160017 -0.067880 1.327187
LeftShoulder -20.316525 37.613861 23.955917
LeftArm 59.417426 -57.262993 -58.973753
LeftForeArm 7.730993 -0.000000 10.956093
LeftHand 9.281087 0.000000 15.203511
LeftHandThumb1 -26.253704 0.000000 33.147579
RightShoulder -6.117992 6.600294 -31.501718
RightArm 11.296494 10.772602 39.302542
RightForeArm -6.934009 -0.000000 10.936543
RightHand 8.082057 -0.000000 -12.614990
RightHandThumb1 -24.326973 -0.000000 -32.862282
LeftUpLeg -11.549700 -7.322237 2.240432
LeftLeg 0.565036 -0.000000 -0.000000
LeftFoot -8.377928 12.233437 -11.913881
LeftToeBase -11.738963 -0.000000 0.000000
RightUpLeg -15.041395 0.232791 -0.867179
RightLeg 2.441147 -0.000000 -0.000000
RightFoot -6.870004 -4.176922 9.509917
RightToeBase -0.249677 -0.000000 0.000000
2165
root 1.305036 32.772877 -3.430885 16.071777 -6.574869 -3.199587
Spine -14.388311 -0.488594 -1.608412
Head 11.632228 -0.262192 1.257000
LeftShoulder -20.305841 37.725932 23.786833
LeftArm 59.995634 -57.171405 -59.641040
LeftForeArm 7.828433 -0.000000 11.422812
LeftHand 9.308772 -0.000000 15.465053
LeftHandThumb1 -26.253704 0.000000 33.147579
RightShoulder -6.363868 6.439771 -31.361450
RightArm 11.152909 10.888942 39.401333
RightForeArm -7.163805 0.000000 11.302678
RightHand 7.700557 0.000000 -12.677710
RightHandThumb1 -24.326973 -0.000000 -32.862282
LeftUpLeg -11.356430 -7.503359 2.384104
LeftLeg 0.433850 -0.000000 -0.000000
LeftFoot -8.235819 11.541681 -12.495576
LeftToeBase -11.406461 -0.000000 0.000000
RightUpLeg -14.526038 -0.013464 -0.685869
RightLeg 1.852346 -0.000000 -0.000000
RightFoot -6.667720 -5.112523 8.967789
RightToeBase -0.204643 -0.000000 0.000000
2166
root 1.259954 32.807321 -3.377348 15.920793 -6.039719 -3.165362
Spine -14.588482 -0.707801 -1.434428
Head 12.069922 -0.412898 1.135456
LeftShoulder -20.263407 37.868189 23.617642
LeftArm 60.152998 -56.977195 -59.973454
LeftForeArm 7.945408 -0.000000 11.939766
LeftHand 9.221894 -0.000000 15.630382
LeftHandThumb1 -26.253704 0.000000 33.147579
RightShoulder -6.566742 6.061496 -31.285526
RightArm 11.107409 11.165194 39.620676
RightForeArm -7.496370 -0.000000 11.632037
RightHand 7.656429 -0.000000 -12.297304
RightHandThumb1 -24.326973 -0.000000 -32.862282
LeftUpLeg -11.090009 -7.680555 2.533846
LeftLeg 0.269920 -0.000000 -0.000000
LeftFoot -7.984478 11.013756 -13.026837
LeftToeBase -11.210203 -0.000000 0.000000
RightUpLeg -13.973180 -0.276121 -0.472330
RightLeg 1.296186 -0.000000 -0.000000
RightFoot -6.308556 -5.753331 8.517763
RightToeBase 0.045472 -0.000000 -0.000000
2167
root 1.221473 32.847867 -3.326863 15.799814 -5.603790 -3.107270
Spine -14.821351 -0.820550 -1.303592
Head 12.498554 -0.583218 0.977702
LeftShoulder -20.134443 38.038206 23.507805
LeftArm 59.989596 -56.705937 -59.976464
LeftForeArm 7.970054 0.000000 12.309971
LeftHand 9.326534 0.000000 15.435758
LeftHandThumb1 -26.253704 0.000000 33.147579
RightShoulder -6.712452 5.715917 -31.288085
RightArm 10.954630 11.227111 39.856822
RightForeArm -7.665430 -0.000000 11.870416
RightHand 7.641386 -0.000000 -11.788151
RightHandThumb1 -24.326973 -0.000000 -32.862282
LeftUpLeg -10.858564 -7.984173 2.674860
LeftLeg 0.111203 -0.000000 -0.000000
LeftFoot -7.763275 10.631973 -13.749482
LeftToeBase -10.450006 -0.000000 0.000000
RightUpLeg -13.554067 -0.615220 -0.289810
RightLeg 0.914818 -0.000000 -0.000000
RightFoot -5.889566 -6.196218 8.031629
RightToeBase 0.208582 -0.000000 -0.000000
2168
root 1.184113 32.889124 -3.276354 15.661265 -5.298251 -3.092541
Spine -15.001201 -0.770273 -1.191124
Head 12.819520 -0.745126 0.886907
LeftShoulder -19.965555 38.139698 23.490367
LeftArm 59.483620 -56.289234 -59.551887
LeftForeArm 7.947106 -0.000000 12.476562
LeftHand 9.419942 -0.000000 15.121443
LeftHandThumb1 -26.253704 0.000000 33.147579
RightShoulder -6.836293 5.365061 -31.335044
RightArm 10.719509 11.048518 40.060904
RightForeArm -7.713535 -0.000000 12.022523
RightHand 7.550322 -0.000000 -10.959602
RightHandThumb1 -24.326973 -0.000000 -32.862282
LeftUpLeg -10.608533 -8.203586 2.791773
LeftLeg -0.013674 -0.000000 0.000000
LeftFoot -7.515167 10.472556 -14.191219
LeftToeBase -10.238924 -0.000000 0.000000
RightUpLeg -13.114317 -0.774900 -0.133008
RightLeg 0.489995 -0.000000 -0.000000
RightFoot -5.377656 -6.670004 7.585117
RightToeBase 0.021233 -0.000000 -0.000000
2169
root 1.145747 32.929118 -3.229316 15.505155 -5.032317 -3.102251
Spine -15.164206 -0.731207 -1.046634
Head 13.151244 -0.857582 0.784580
LeftShoulder -19.751322 38.143820 23.524264
LeftArm 58.576834 -55.785386 -58.675685
LeftForeArm 7.929242 0.000000 12.441623
LeftHand 9.596749 -0.000000 14.562902
LeftHandThumb1 -26.253704 0.000000 33.147579
RightShoulder -6.878484 4.874642 -31.377653
RightArm 10.664609 10.967974 40.265300
RightForeArm -7.869332 0.000000 11.962499
RightHand 7.272823 -0.000000 -10.270726
RightHandThumb1 -24.326973 -0.000000 -32.862282
LeftUpLeg -10.370759 -8.431819 2.896019
LeftLeg -0.087834 -0.000000 0.000000
LeftFoot -7.289575 10.496745 -14.368850
LeftToeBase -10.451442 -0.000000 0.000000
RightUpLeg -12.720383 -0.973279 0.041539
RightLeg 0.178949 -0.000000 -0.000000
RightFoot -4.893562 -6.979352 7.259661
RightToeBase -0.098549 -0.000000 0.000000
